<?xml version="1.0" encoding="UTF-8" standalone="no"?>
<svg width="128" height="128" viewBox="0 0 128 128" xmlns="http://www.w3.org/2000/svg">
  <g>
    <!-- Crystal ball base -->
    <rect x="24" y="100" width="80" height="12" rx="3" fill="#333333"/>
    <rect x="18" y="112" width="92" height="6" rx="2" fill="#222222"/>
    
    <!-- Crystal ball face -->
    <path d="M48 103 Q64 97 80 103" stroke="#000000" stroke-width="1.5" fill="none"/>
    <circle cx="53" cy="102" r="1.5" fill="#000000"/>
    <circle cx="75" cy="102" r="1.5" fill="#000000"/>
    
    <!-- Crystal ball glass -->
    <circle cx="64" cy="60" r="48" fill="#64B5F6"/>
    
    <!-- Crystal ball content -->
    <path d="M45 40 Q55 70 85 70 Q70 85 55 85 Q45 80 40 55 Q40 45 45 40" fill="#9575CD"/>
    <circle cx="48" cy="50" r="8" fill="#5E35B1"/>
    
    <!-- Star/sparkle -->
    <path d="M95 28 L100 38 L110 40 L100 42 L95 52 L90 42 L80 40 L90 38 Z" fill="#FDD835"/>
  </g>
</svg>