<?xml version="1.0" standalone="no"?>
<!DOCTYPE svg PUBLIC "-//W3C//DTD SVG 20010904//EN"
 "http://www.w3.org/TR/2001/REC-SVG-20010904/DTD/svg10.dtd">
<svg version="1.0" xmlns="http://www.w3.org/2000/svg"
 width="256.000000pt" height="256.000000pt" viewBox="0 0 256.000000 256.000000"
 preserveAspectRatio="xMidYMid meet">
<metadata>
Created by potrace 1.16, written by Peter Selinger 2001-2019
</metadata>
<g transform="translate(0.000000,256.000000) scale(0.100000,-0.100000)"
fill="#000000" stroke="none">
<path d="M0 1280 l0 -1280 1280 0 1280 0 0 1280 0 1280 -1280 0 -1280 0 0
-1280z m1543 1166 c101 -30 237 -94 245 -115 8 -20 -70 -85 -138 -117 -111
-51 -122 -59 -137 -88 -20 -38 -12 -100 17 -131 12 -13 48 -33 80 -44 63 -23
137 -76 185 -132 15 -19 45 -70 66 -114 40 -88 52 -101 98 -115 67 -19 123 19
150 101 14 44 67 129 80 129 17 0 43 -142 48 -260 12 -264 -81 -509 -265 -702
l-75 -78 -99 0 -100 0 6 27 c13 63 17 151 8 190 l-9 41 39 18 c58 26 125 96
156 162 36 76 38 202 5 274 -65 141 -226 227 -371 198 -137 -28 -246 -132
-267 -255 -12 -71 -13 -72 -70 -83 -213 -43 -371 -250 -352 -462 4 -36 9 -75
13 -87 6 -23 5 -23 -94 -23 l-100 0 -76 81 c-185 196 -275 438 -263 704 8 193
75 383 186 529 42 55 51 74 46 95 -4 20 0 32 19 50 15 14 26 19 31 12 11 -19
29 -12 90 34 69 52 207 125 281 149 118 38 176 46 329 42 126 -3 164 -8 238
-30z m478 14 c4 -8 22 -46 39 -84 48 -101 133 -184 246 -238 124 -60 124 -72
1 -131 -121 -59 -205 -144 -257 -260 -49 -109 -78 -113 -114 -17 -46 120 -141
218 -272 280 -72 35 -84 44 -84 66 0 15 7 27 18 30 73 24 168 81 221 135 54
54 111 148 135 222 7 22 55 20 67 -3z m-318 -870 c118 -51 175 -194 131 -323
-22 -64 -90 -131 -154 -152 -27 -9 -54 -24 -59 -32 -5 -10 -3 -37 6 -72 16
-59 13 -154 -6 -204 l-11 -27 -329 0 -329 0 -14 38 c-7 20 -13 71 -12 112 0
181 137 325 329 349 71 8 89 21 80 58 -8 36 14 119 45 165 71 105 203 141 323
88z"/>
<path d="M939 1973 c-15 -2 -50 -18 -79 -36 -214 -130 -101 -459 150 -435 143
14 239 162 200 306 -17 64 -90 136 -159 156 -55 16 -63 17 -112 9z m149 -116
c53 -49 67 -127 36 -193 -50 -104 -211 -111 -273 -11 -42 68 -20 171 44 213
57 37 148 33 193 -9z"/>
</g>
</svg>
